<svg xmlns='http://www.w3.org/2000/svg' style='display: none;'><symbol id="logo"  xmlns="http://www.w3.org/2000/svg" fill="none" viewBox="0 0 232 187"><path fill="currentcolor" d="M103.273 114.426V94.732h1.398v19.694h-1.398Zm7.346-61.473 1.288.572-.168.386-.186.377-.201.366-.217.356-.229.347-.242.34-.253.33-.261.325-.27.317-.275.312-.282.306-.286.3-.289.299-.29.292-.291.29-.291.286-.288.284-.286.282-.281.28-.277.28-.269.279-.262.277-.253.277-.242.276-.231.276-.219.276-.206.276-.19.276-.174.276-.159.276-.141.277-.123.28-1.284-.58.157-.354.175-.345.193-.337.208-.328.221-.321.234-.315.245-.31.255-.304.263-.3.27-.296.277-.292.28-.29.285-.288.288-.286.289-.285.289-.285.287-.284.286-.285.282-.285.278-.286.273-.287.265-.288.257-.29.248-.293.237-.294.226-.297.214-.3.2-.303.186-.304.171-.31.154-.311.138-.318-.003.002Zm16.828 12.848h-23.553v-1.465h23.553l.699.732-.699.732v.001Zm0-1.465h.699v.732l-.699-.732Zm-.699 24.507V65.069h1.398v23.774l-.699.732-.699-.732Zm1.398 0v.732h-.699l.699-.732Zm-24.252-.732h23.553v1.465h-23.553l-.699-.732.699-.732v-.001Zm0 1.465h-.699v-.732l.699.732Zm.699-24.507v23.774h-1.398V65.069l.699-.732.699.732Zm-1.398 0v-.732h.699l-.699.732Zm-2.834 60.091h30.03v1.466h-30.03l-.699-.732.699-.733v-.001Zm0 1.466h-.699v-.732l.699.732Zm-.699-63.718h1.398V125.899h-1.398V62.909Zm10.856-15.488v1.465l.699-.732-.036.556-.1.546-.159.535-.209.522-.255.51-.295.501-.33.493-.361.487-.388.481-.412.477-.431.473-.448.47-.46.467-.47.465-.474.463-.478.462-.474.458-.469.457-.459.456-.446.453-.43.45-.408.448-.382.444-.355.44-.323.436-.286.428-.248.422-.205.412-.161.401-.116.391-.069.378-.023.37h-1.398l.034-.558.101-.547.159-.537.209-.523.255-.512.295-.503.33-.494.36-.487.388-.482.413-.478.43-.473.448-.471.461-.469.469-.465.474-.463.477-.462.474-.458.469-.457.459-.455.446-.452.43-.45.407-.448.383-.443.355-.44.322-.434.286-.428.247-.421.206-.411.16-.4.115-.389.07-.377.023-.367.699-.732h.005Zm-.699.732v-.732h.699l-.699.732Zm10.745-.063h-1.398l.699.732h-.591l-.532.001-.48.001-.428.001-.382.002-.339.002-.3.002-.266.002-.235.003-.208.002-.184.002-.165.004-.151.002-.139.004-.132.002-.126.003-.13.004-.132.002-.142.003-.152.003-.168.003-.189.002-.211.003-.237.002-.269.002-.302.002-.341.003-.384.001-.43.001-.48.001-.533.001h-.592v-1.465h.591l.532-.001.48-.001.428-.001.382-.002.338-.002.301-.002.266-.002.236-.003.207-.002.184-.002.165-.004.15-.002.139-.003.132-.003.126-.003.13-.004.132-.002.141-.003.152-.003.168-.003.189-.002.21-.003.237-.002.268-.002.302-.003.341-.002.384-.001.429-.001.48-.001.534-.001h.591l.699.732h.005Zm-.699-.732h.699v.732l-.699-.732Zm11.224 15.398h-1.398l-.023-.36-.072-.37-.119-.383-.166-.396-.212-.408-.257-.418-.296-.425-.334-.433-.368-.438-.397-.442-.423-.446-.445-.448-.462-.451-.476-.454-.486-.456-.492-.457-.494-.46-.492-.46-.487-.463-.476-.465-.464-.467-.447-.472-.426-.475-.402-.479-.373-.483-.343-.49-.305-.499-.265-.508-.218-.52-.164-.533-.106-.547-.036-.557h1.397l.024.36.071.37.12.383.166.396.212.408.256.418.297.425.334.433.368.438.397.442.423.446.445.448.462.451.476.454.485.456.491.457.495.46.492.46.486.463.477.465.464.468.447.472.426.474.402.479.373.483.342.49.306.5.265.508.218.52.164.533.105.546.037.557h.001Zm-1.398 63.139V62.755h1.398v63.139l-.699.732-.699-.732Zm1.398 0v.732h-.699l.699-.732Zm-19.874-97.951v20.209h-1.397v-20.21l.699-.731.698.732Zm-1.397 0v-.732h.699l-.699.732Zm10.045.732h-9.348V27.21h9.348l.699.732-.699.732Zm0-1.465h.699v.732l-.699-.732Zm-.698 20.878V27.942h1.397v20.146h-1.397Zm-9.558-21.836 1.343 1.116-.867 1.149-1.344-1.116-.265-.573 1.133-.576Zm-.868 1.149-.263-.219-.002-.354.265.573Zm1.128-2.983.005 2.407-1.398.003-.005-2.407.304-.606 1.094.602Zm-1.398.003-.001-.387.304-.22-.304.607h.001Zm2.442-.368-1.348.97-.79-1.208 1.349-.97.395-.129.394 1.337Zm-.789-1.209.178-.128h.217l-.395.128Zm9.743 1.337h-9.348v-1.465h9.348l.394.128-.394 1.337Zm0-1.465h.217l.177.128-.394-.128Zm.946 2.302-1.342-.965.789-1.209 1.342.965.304.604-1.093.604Zm.789-1.209.304.219v.386l-.304-.604Zm-1.094 3.017v-2.413h1.398v2.413l-.265.574-1.133-.574Zm1.398 0v.354l-.265.22.265-.574Zm-2.473.542 1.342-1.116.867 1.148-1.342 1.116-.867-1.148Zm-6.88-10.635v6.714h-1.398v-6.714l.699-.732.699.732Zm-1.398 0v-.732h.699l-.699.732Zm7.375.732h-6.676V16h6.676l.699.732-.699.732v.001Zm0-1.465h.699v.732l-.699-.732Zm-.699 7.447v-6.714h1.398v6.714h-1.398ZM94.914 171c-.881 0-1.989-.869-3.322-2.609-1.334-1.739-2.662-3.832-3.983-6.279-1.322-2.446-2.398-4.688-3.228-6.729a371.682 371.682 0 0 0-2.04 7.455 327.273 327.273 0 0 1-1.85 6.828c-.654 0-1.233-.19-1.736-.569-.503-.38-.755-.844-.755-1.393 0-.392.177-1.112.529-2.158 1.686-5.441 3.233-10.13 4.643-14.067a236.015 236.015 0 0 1 4.908-12.496c-.957.156-1.782.386-2.474.686-.692.301-1.44.673-2.246 1.118-.478.287-.78.431-.906.431-.177 0-.415-.131-.718-.393-.302-.261-.452-.484-.452-.667 3.222-1.438 6.053-2.158 8.494-2.158 1.56 0 3.07.262 4.53.785 1.46.523 2.662 1.334 3.606 2.432.943 1.098 1.416 2.472 1.416 4.12 0 2.327-.9 4.126-2.7 5.395a14.992 14.992 0 0 1-5.889 2.511c-2.127.405-3.958.608-5.494.608a150.76 150.76 0 0 0 1.283 2.354c1.083 2.014 2.032 3.675 2.852 4.982.817 1.308 1.836 2.688 3.057 4.139 1.22 1.451 2.688 2.91 4.4 4.375-.152.34-.423.642-.813.903-.39.261-.762.393-1.113.393V171Zm-9.93-17.774a20.255 20.255 0 0 0 5.663-1.178c1.787-.653 3.259-1.608 4.418-2.864 1.158-1.257 1.736-2.812 1.736-4.669 0-1.988-.648-3.434-1.946-4.335-1.295-.903-2.9-1.354-4.813-1.354-1.51 3.14-3.196 7.939-5.06 14.4h.002Zm15.706 13.419c-.352 0-.641-.092-.868-.274-.227-.183-.34-.445-.34-.785 0-.418.238-.791.717-1.119.478-.327.968-.49 1.471-.49.654 0 .982.314.982.941 0 .393-.207.779-.623 1.158-.415.379-.862.569-1.34.569h.001Zm9.175.862c-1.032 0-1.787-.326-2.266-.98-.479-.653-.717-1.517-.717-2.59s.214-2.197.642-3.374c.428-1.177.982-2.158 1.661-2.943.68-.785 1.36-1.178 2.04-1.178.226 0 .49.067.792.197-.303.261-.666.836-1.095 1.726-.428.89-.8 1.837-1.114 2.844-.315 1.007-.472 1.824-.472 2.453 0 1.491.453 2.237 1.36 2.237.529 0 1.158-.288 1.888-.864.73-.576 1.447-1.334 2.152-2.276-.705-.602-1.253-1.386-1.642-2.353a7.995 7.995 0 0 1-.585-3.021c0-1.361.334-2.525 1-3.493.667-.968 1.568-1.452 2.7-1.452.956 0 1.629.267 2.02.804.39.536.585 1.275.585 2.217 0 .994-.233 2.112-.699 3.354a19.22 19.22 0 0 1-1.831 3.629c.454.261.932.393 1.435.393.73 0 1.485-.229 2.266-.687.78-.457 1.372-1.17 1.775-2.137l.452.391c-.478 1.152-1.158 2.001-2.039 2.551-.881.549-1.787.823-2.718.823-.68 0-1.285-.131-1.813-.393-.906 1.23-1.868 2.225-2.888 2.983-1.02.759-1.982 1.138-2.888 1.138l-.001.001Zm5.549-5.767a17.014 17.014 0 0 0 1.587-3.119c.402-1.06.604-2.034.604-2.924 0-.732-.107-1.282-.322-1.647-.213-.366-.483-.55-.811-.55-.352 0-.711.177-1.076.53-.365.353-.667.837-.906 1.451a5.535 5.535 0 0 0-.359 2.021c0 .812.107 1.59.321 2.335.214.745.536 1.38.963 1.903h-.001Zm8.76 5.69c-1.032 0-1.794-.367-2.285-1.098-.491-.733-.735-1.714-.735-2.943 0-2.354.779-5.552 2.341-9.593 1.56-4.041 3.303-7.683 5.23-10.927 1.925-3.243 3.315-4.866 4.171-4.866.353 0 .649.32.887.961.239.641.359 1.289.359 1.943 0 1.203-.471 2.975-1.415 5.316-.945 2.341-2.184 4.715-3.72 7.121-1.536 2.407-3.172 4.355-4.907 5.846-.328 1.517-.492 2.838-.492 3.963 0 2.015.554 3.021 1.661 3.021.932 0 1.881-.613 2.85-1.843.969-1.229 1.831-2.708 2.586-4.434l.568.314c-2.166 4.813-4.531 7.22-7.098 7.22l-.001-.001Zm.264-9.573c1.385-1.44 2.737-3.251 4.059-5.435 1.322-2.185 2.397-4.277 3.228-6.277.83-2.002 1.246-3.446 1.246-4.336 0-.419-.088-.627-.265-.627-.352 0-1.076.896-2.171 2.687-1.094 1.791-2.221 3.983-3.379 6.573-1.158 2.589-2.064 5.061-2.719 7.415h.001Zm12.762-8.554c-.453 0-.824-.111-1.114-.334-.29-.221-.435-.543-.435-.961 0-.523.303-.995.906-1.412.605-.418 1.221-.627 1.85-.627.831 0 1.246.406 1.246 1.217 0 .497-.258.974-.773 1.431-.516.458-1.076.687-1.68.687v-.001Zm-4.531 17.97c-.932 0-1.648-.307-2.152-.922-.504-.615-.755-1.405-.755-2.374 0-1.02.284-2.432.849-4.237.566-1.806 1.272-3.388 2.114-4.749.843-1.36 1.668-2.04 2.473-2.04a.81.81 0 0 1 .585.235c.163.157.246.367.246.627 0 .367-.402 1.243-1.208 2.629-.831 1.44-1.491 2.727-1.983 3.865-.491 1.138-.736 2.217-.736 3.237 0 .915.145 1.537.434 1.865.29.326.762.49 1.416.49 1.964 0 3.902-2.002 5.815-6.003l.34.392c-.705 2.198-1.743 3.911-3.115 5.14-1.372 1.229-2.813 1.844-4.323 1.844v.001Zm8.986.236c-1.032 0-1.787-.327-2.266-.981-.479-.653-.717-1.517-.717-2.59s.214-2.197.642-3.374c.428-1.176.982-2.158 1.661-2.943.68-.785 1.36-1.178 2.039-1.178.227 0 .491.067.793.197-.303.262-.667.836-1.095 1.726a21.05 21.05 0 0 0-1.114 2.844c-.314 1.008-.472 1.824-.472 2.453 0 1.491.454 2.237 1.36 2.237.528 0 1.157-.288 1.887-.864.73-.576 1.447-1.334 2.151-2.276-.704-.602-1.251-1.386-1.642-2.353a8.034 8.034 0 0 1-.585-3.021c0-1.361.335-2.525 1.001-3.493.667-.967 1.566-1.452 2.699-1.452.957 0 1.63.268 2.02.805.39.535.586 1.275.586 2.216 0 .994-.233 2.112-.699 3.354a19.22 19.22 0 0 1-1.831 3.629c.452.262.93.393 1.435.393.73 0 1.485-.229 2.265-.687.78-.457 1.372-1.17 1.775-2.137l.452.392c-.478 1.151-1.158 2-2.039 2.55-.881.549-1.787.823-2.719.823-.68 0-1.284-.131-1.813-.393-.906 1.23-1.868 2.225-2.888 2.983-1.019.759-1.981 1.138-2.887 1.138l.001.002Zm5.55-5.768a16.946 16.946 0 0 0 1.586-3.119c.402-1.06.604-2.034.604-2.924 0-.732-.107-1.281-.321-1.647-.213-.366-.484-.55-.811-.55-.352 0-.711.178-1.076.531-.364.353-.667.836-.906 1.451a5.527 5.527 0 0 0-.359 2.021c0 .811.107 1.589.321 2.334.214.745.536 1.38.963 1.903h-.001Z"/></symbol><symbol id="shopping-basket"  xmlns="http://www.w3.org/2000/svg" fill="none" viewBox="0 0 40 40"><path fill="currentcolor" d="M38.162 14.718H29.19l-6.306-12.16a1.827 1.827 0 0 0-1.077-.906A1.826 1.826 0 0 0 20 2.06a1.832 1.832 0 0 0-1.808-.408c-.468.149-.85.47-1.077.906l-6.647 12.817a1.826 1.826 0 0 0 .091 1.848H1.84a.667.667 0 0 1 0-1.333h6.68a.586.586 0 1 0 0-1.172h-6.68A1.84 1.84 0 0 0 0 16.556c0 .84.567 1.55 1.34 1.769l3.393 18.1a2.466 2.466 0 0 0 2.422 2.01h25.69a2.466 2.466 0 0 0 2.422-2.01l3.394-18.1A1.841 1.841 0 0 0 40 16.556a1.84 1.84 0 0 0-1.838-1.838ZM20.946 2.813a.662.662 0 0 1 .508-.044c.17.054.308.171.39.329l6.647 12.817a.662.662 0 0 1-.284.898.662.662 0 0 1-.509.044.662.662 0 0 1-.39-.328L20.661 3.712a.667.667 0 0 1 .285-.899Zm7.802 15.582-.554 5.717h-7.608v-5.717h8.162ZM20 4.983l6.268 12.085c.027.053.058.105.09.155H13.642c.032-.05.063-.102.09-.155l.611-1.178h8.919a.586.586 0 1 0 0-1.172h-8.31L20 4.983Zm-8.492 10.932 6.648-12.817a.662.662 0 0 1 .592-.36.667.667 0 0 1 .591.974l-6.647 12.816a.662.662 0 0 1-.39.329.662.662 0 0 1-.509-.044.662.662 0 0 1-.328-.39.662.662 0 0 1 .043-.508Zm-8.964 2.48h7.53l.555 5.717H3.616l-1.072-5.717Zm1.292 6.888h6.906L11.297 31H4.908l-1.072-5.717Zm3.32 11.98a1.293 1.293 0 0 1-1.271-1.055l-.757-4.036h6.283l.493 5.091H7.155Zm12.258 0h-6.333l-.493-5.09h6.826v5.09Zm0-6.263h-6.94l-.554-5.717h7.494V31Zm0-6.888h-7.608l-.554-5.717h8.162v5.717Zm7.505 13.151h-6.333v-5.09h6.826l-.493 5.09ZM27.526 31h-6.94v-5.716h7.494L27.526 31Zm6.59 5.208a1.293 1.293 0 0 1-1.271 1.055h-4.75l.495-5.09h6.282l-.757 4.035ZM35.091 31h-6.389l.555-5.716h6.906L35.092 31Zm1.292-6.889H29.37l.555-5.716h7.53l-1.072 5.716Zm1.778-6.888H29.44a1.844 1.844 0 0 0 .268-1.333h8.453a.667.667 0 0 1 0 1.333Z"/></symbol><symbol id="user"  xmlns="http://www.w3.org/2000/svg" xml:space="preserve" viewBox="0 0 60.671 60.671"><ellipse cx="30.336" cy="12.097" rx="11.997" ry="12.097" style="fill:#010002"/><path d="M35.64 30.079H25.031c-7.021 0-12.714 5.739-12.714 12.821v17.771h36.037V42.9c0-7.082-5.693-12.821-12.714-12.821z" style="fill:#010002"/></symbol><symbol id="vite"  xmlns="http://www.w3.org/2000/svg" width="31.88" height="32" aria-hidden="true" class="iconify iconify--logos" viewBox="0 0 256 257"><defs><linearGradient id="a" x1="-.828%" x2="57.636%" y1="7.652%" y2="78.411%"><stop offset="0%" stop-color="#41D1FF"/><stop offset="100%" stop-color="#BD34FE"/></linearGradient><linearGradient id="b" x1="43.376%" x2="50.316%" y1="2.242%" y2="89.03%"><stop offset="0%" stop-color="#FFEA83"/><stop offset="8.333%" stop-color="#FFDD35"/><stop offset="100%" stop-color="#FFA800"/></linearGradient></defs><path fill="url(#a)" d="M255.153 37.938 134.897 252.976c-2.483 4.44-8.862 4.466-11.382.048L.875 37.958c-2.746-4.814 1.371-10.646 6.827-9.67l120.385 21.517a6.537 6.537 0 0 0 2.322-.004l117.867-21.483c5.438-.991 9.574 4.796 6.877 9.62Z"/><path fill="url(#b)" d="M185.432.063 96.44 17.501a3.268 3.268 0 0 0-2.634 3.014l-5.474 92.456a3.268 3.268 0 0 0 3.997 3.378l24.777-5.718c2.318-.535 4.413 1.507 3.936 3.838l-7.361 36.047c-.495 2.426 1.782 4.5 4.151 3.78l15.304-4.649c2.372-.72 4.652 1.36 4.15 3.788l-11.698 56.621c-.732 3.542 3.979 5.473 5.943 2.437l1.313-2.028 72.516-144.72c1.215-2.423-.88-5.186-3.54-4.672l-25.505 4.922c-2.396.462-4.435-1.77-3.759-4.114l16.646-57.705c.677-2.35-1.37-4.583-3.769-4.113Z"/></symbol></svg>